<mxfile host="app.diagrams.net" modified="2023-12-02T12:15:56.353Z" agent="Mozilla/5.0 (Macintosh; Intel Mac OS X 10_15_7) AppleWebKit/605.1.15 (KHTML, like Gecko) Version/17.0 Safari/605.1.15" etag="kF4vRdtXr9rHZChmaIM1" version="22.1.5" type="device">
  <diagram name="Page-1" id="rPxA1Wn-3q9qBxS_6Eqo">
    <mxGraphModel dx="766" dy="445" grid="1" gridSize="10" guides="1" tooltips="1" connect="1" arrows="1" fold="1" page="1" pageScale="1" pageWidth="827" pageHeight="1169" math="0" shadow="0">
      <root>
        <mxCell id="0" />
        <mxCell id="1" parent="0" />
        <mxCell id="yfewVgs2gfIWARSGiO0L-1" value="&lt;p style=&quot;line-height: 80%; font-size: 17px;&quot;&gt;&lt;font style=&quot;font-size: 17px;&quot;&gt;&lt;b&gt;User table&lt;/b&gt;&lt;/font&gt;&lt;/p&gt;&lt;p style=&quot;text-align: left; line-height: 80%; font-size: 17px;&quot;&gt;&lt;font style=&quot;font-size: 17px;&quot;&gt;&lt;b&gt;ID&lt;/b&gt;&lt;/font&gt;&lt;/p&gt;&lt;p style=&quot;text-align: left; line-height: 80%; font-size: 17px;&quot;&gt;&lt;span style=&quot;font-size: medium;&quot;&gt;First Name&lt;/span&gt;&lt;/p&gt;&lt;p style=&quot;text-align: left; line-height: 80%;&quot;&gt;&lt;font size=&quot;3&quot;&gt;Last name&lt;/font&gt;&lt;/p&gt;&lt;p style=&quot;text-align: left; line-height: 80%;&quot;&gt;&lt;font size=&quot;3&quot;&gt;Email&lt;/font&gt;&lt;/p&gt;&lt;p style=&quot;text-align: left; line-height: 80%;&quot;&gt;&lt;font size=&quot;3&quot;&gt;Password&lt;/font&gt;&lt;/p&gt;" style="rounded=0;whiteSpace=wrap;html=1;" parent="1" vertex="1">
          <mxGeometry x="20" y="50" width="180" height="200" as="geometry" />
        </mxCell>
        <mxCell id="yfewVgs2gfIWARSGiO0L-2" value="&lt;h1 style=&quot;line-height: 40%; font-size: 16px;&quot;&gt;&lt;b&gt;&lt;font style=&quot;font-size: 16px;&quot;&gt;Musician&lt;/font&gt;&lt;span style=&quot;font-size: 22px;&quot;&gt;&amp;nbsp;&lt;/span&gt;&lt;br&gt;&lt;/b&gt;&lt;p style=&quot;text-align: left; line-height: 40%;&quot;&gt;&lt;font style=&quot;font-size: 16px; font-weight: normal;&quot;&gt;&amp;lt;ID&amp;gt;&lt;/font&gt;&lt;/p&gt;&lt;p style=&quot;text-align: left; line-height: 40%;&quot;&gt;&lt;span style=&quot;font-weight: normal;&quot;&gt;&lt;span style=&quot;&quot;&gt;Genre&lt;/span&gt;&lt;br&gt;&lt;/span&gt;&lt;/p&gt;&lt;p style=&quot;text-align: left; line-height: 40%;&quot;&gt;&lt;span style=&quot;font-weight: normal;&quot;&gt;Experience&lt;/span&gt;&lt;/p&gt;&lt;p style=&quot;text-align: left; line-height: 40%;&quot;&gt;&lt;span style=&quot;font-weight: normal;&quot;&gt;&lt;span style=&quot;&quot;&gt;Instrument&lt;/span&gt;&amp;nbsp;&lt;/span&gt;&lt;/p&gt;&lt;p style=&quot;font-size: 22px; line-height: 10%;&quot;&gt;&lt;span style=&quot;&quot;&gt;&lt;br&gt;&lt;/span&gt;&lt;/p&gt;&lt;/h1&gt;" style="rounded=0;whiteSpace=wrap;html=1;" parent="1" vertex="1">
          <mxGeometry x="270" y="50" width="180" height="200" as="geometry" />
        </mxCell>
        <mxCell id="yfewVgs2gfIWARSGiO0L-3" value="&lt;h1&gt;&lt;font style=&quot;font-size: 18px;&quot;&gt;Notification&lt;/font&gt;&lt;/h1&gt;&lt;div style=&quot;text-align: left;&quot;&gt;&lt;font style=&quot;font-size: 18px;&quot;&gt;&amp;lt;ID&amp;gt;&lt;/font&gt;&lt;/div&gt;&lt;div style=&quot;text-align: left;&quot;&gt;&lt;font style=&quot;font-size: 18px;&quot;&gt;Time&lt;/font&gt;&lt;/div&gt;&lt;div style=&quot;text-align: left;&quot;&gt;&lt;font style=&quot;font-size: 18px;&quot;&gt;Sender&lt;/font&gt;&lt;/div&gt;&lt;div style=&quot;text-align: left;&quot;&gt;&lt;font style=&quot;font-size: 18px;&quot;&gt;Text&lt;/font&gt;&lt;/div&gt;" style="rounded=0;whiteSpace=wrap;html=1;align=center;" parent="1" vertex="1">
          <mxGeometry x="21" y="320" width="180" height="200" as="geometry" />
        </mxCell>
        <mxCell id="yfewVgs2gfIWARSGiO0L-4" value="" style="rounded=0;whiteSpace=wrap;html=1;" parent="1" vertex="1">
          <mxGeometry x="520" y="320" width="180" height="200" as="geometry" />
        </mxCell>
        <mxCell id="yfewVgs2gfIWARSGiO0L-5" value="&lt;font&gt;&lt;font size=&quot;4&quot;&gt;&lt;b&gt;Vacancy&lt;/b&gt;&lt;/font&gt;&lt;br&gt;&lt;div style=&quot;text-align: left;&quot;&gt;&lt;font size=&quot;4&quot;&gt;&amp;lt;ID&amp;gt;&lt;/font&gt;&lt;/div&gt;&lt;div style=&quot;text-align: left;&quot;&gt;&lt;font size=&quot;4&quot;&gt;&lt;br&gt;&lt;/font&gt;&lt;/div&gt;&lt;div style=&quot;text-align: left;&quot;&gt;&lt;font size=&quot;4&quot;&gt;&lt;br&gt;&lt;/font&gt;&lt;/div&gt;&lt;/font&gt;" style="rounded=0;whiteSpace=wrap;html=1;" parent="1" vertex="1">
          <mxGeometry x="270" y="320" width="180" height="200" as="geometry" />
        </mxCell>
        <mxCell id="yfewVgs2gfIWARSGiO0L-6" value="" style="rounded=0;whiteSpace=wrap;html=1;" parent="1" vertex="1">
          <mxGeometry x="20" y="600" width="180" height="200" as="geometry" />
        </mxCell>
        <mxCell id="yfewVgs2gfIWARSGiO0L-7" value="" style="rounded=0;whiteSpace=wrap;html=1;" parent="1" vertex="1">
          <mxGeometry x="270" y="600" width="180" height="200" as="geometry" />
        </mxCell>
        <mxCell id="yfewVgs2gfIWARSGiO0L-8" value="&lt;h1&gt;&lt;b style=&quot;font-size: 16px;&quot;&gt;&lt;font style=&quot;font-size: 16px;&quot;&gt;Messages&lt;/font&gt;&lt;/b&gt;&lt;/h1&gt;&lt;font style=&quot;font-size: 18px;&quot;&gt;&lt;div style=&quot;text-align: left;&quot;&gt;ID&lt;/div&gt;&lt;div style=&quot;text-align: left;&quot;&gt;Time&lt;/div&gt;&lt;div style=&quot;text-align: left;&quot;&gt;Sender&lt;/div&gt;&lt;div style=&quot;text-align: left;&quot;&gt;Receiver&lt;/div&gt;&lt;/font&gt;" style="rounded=0;whiteSpace=wrap;html=1;" parent="1" vertex="1">
          <mxGeometry x="510" y="50" width="180" height="200" as="geometry" />
        </mxCell>
        <mxCell id="yfewVgs2gfIWARSGiO0L-9" value="" style="rounded=0;whiteSpace=wrap;html=1;" parent="1" vertex="1">
          <mxGeometry x="520" y="600" width="180" height="200" as="geometry" />
        </mxCell>
      </root>
    </mxGraphModel>
  </diagram>
</mxfile>
